<svg width="23" height="23" viewBox="0 0 23 23" fill="none" xmlns="http://www.w3.org/2000/svg">
<path d="M16.5305 23C15.788 23 15.0519 22.8687 14.332 22.6072C11.1608 21.4552 8.21715 19.5789 5.81932 17.1811C3.42149 14.7833 1.54518 11.8397 0.393204 8.6684C0.0230177 7.64925 -0.0862279 6.59723 0.0686115 5.54143C0.213658 4.55247 0.596736 3.59239 1.17647 2.76496C1.75877 1.9339 2.53508 1.24267 3.42144 0.766021C4.36665 0.257751 5.39833 0 6.48791 0C6.82679 0 7.11966 0.236774 7.19068 0.568104L8.3188 5.83269C8.36988 6.07108 8.29661 6.31913 8.12426 6.49153L6.1966 8.41914C8.01505 12.0346 10.9658 14.9853 14.5812 16.8037L16.5088 14.8761C16.6812 14.7037 16.9293 14.6305 17.1676 14.6815L22.4322 15.8097C22.7636 15.8807 23.0003 16.1735 23.0003 16.5124C23.0003 17.602 22.7426 18.6337 22.2343 19.5789C21.7576 20.4653 21.0664 21.2416 20.2353 21.8239C19.4079 22.4036 18.4479 22.7867 17.4589 22.9318C17.149 22.9773 16.8391 23 16.5305 23ZM5.91365 1.46889C4.47643 1.62754 3.2008 2.38085 2.35369 3.58987C1.40112 4.94938 1.17899 6.62153 1.74426 8.17765C3.959 14.2745 8.72596 19.0414 14.8228 21.2562C16.3788 21.8214 18.051 21.5993 19.4105 20.6467C20.6196 19.7996 21.3729 18.524 21.5315 17.0868L17.2488 16.1691L15.2357 18.1822C15.0215 18.3964 14.696 18.4533 14.4219 18.3245C10.1459 16.3157 6.68475 12.8545 4.67592 8.57856C4.54714 8.30441 4.60401 7.97892 4.81823 7.76474L6.83137 5.75161L5.91365 1.46889Z" fill="white"/>
</svg>
