<svg width="192" height="192" viewBox="0 0 192 192" fill="none" xmlns="http://www.w3.org/2000/svg">
<path d="M0 192V150.758L150.758 0H192L0 192Z" fill="url(#paint0_linear_2818_16)"/>
<path d="M137.266 33.7044C134.434 30.9197 130.401 27.2228 126.656 24.102L87.6219 63.1358C84.7412 68.7052 82.7727 73.0263 82.5806 73.3623L81.1883 76.3871L97.3683 92.5671L100.201 91.6069C100.249 91.6069 100.297 91.5589 100.345 91.5589L147.205 44.6992C144.66 41.3863 141.155 37.4974 137.266 33.7044Z" fill="black"/>
<path d="M92.7592 99.1447L93.7194 96.312L77.5394 80.132L74.5146 81.5243C74.1786 81.6683 69.8575 83.6368 64.2881 86.5656L25.1583 125.695C28.087 129.344 31.6399 133.329 34.8087 136.402C37.7374 139.283 42.0585 143.124 45.8995 146.148L92.7592 99.2887C92.7592 99.1927 92.7592 99.1447 92.7592 99.1447Z" fill="black"/>
<path d="M81.8605 27.1748C80.8042 27.2228 79.5079 28.087 78.4516 32.7922C77.7794 35.913 77.7314 40.9062 78.3076 48.156C79.2678 59.7749 84.261 71.922 84.261 71.922L91.7029 71.7299L100.201 32.7922C100.249 32.8402 83.4448 27.5109 81.8605 27.1748Z" fill="url(#paint1_linear_2818_16)"/>
<path d="M81.8605 27.1748C80.8042 27.2228 79.5079 28.087 78.4516 32.7922C77.7794 35.913 77.7314 40.9062 78.3076 48.156C79.2678 59.7749 84.261 71.922 84.261 71.922L91.7029 71.7299L100.201 32.7922C100.249 32.8402 83.4448 27.5109 81.8605 27.1748Z" fill="url(#paint2_linear_2818_16)"/>
<path d="M91.943 72.018L84.165 72.2101C84.021 71.874 84.069 72.018 83.973 71.73C83.877 71.4419 83.7329 71.1058 83.5889 70.7697C83.2048 69.7135 82.7727 68.5132 82.3406 67.1688C81.0923 63.4239 79.988 59.4869 79.2198 55.5979C78.6917 53.0533 78.3556 50.5567 78.1635 48.2521C77.5874 41.0023 77.6354 35.961 78.3076 32.7922C79.2198 28.7112 80.3721 27.1268 81.9085 27.0308C87.1418 28.4711 92.3271 30.1516 97.4644 31.784C98.2326 32.024 98.9047 32.2161 99.5289 32.4561L100.537 32.7922L91.943 72.018ZM84.4531 71.73L91.5589 71.5859L99.961 33.0323C98.0405 32.4081 98.9047 32.6962 97.3203 32.2161C95.1598 31.5439 92.9992 30.8717 90.9827 30.2476C88.6782 29.5274 86.4216 28.8072 84.117 28.1351C83.6369 27.991 82.9647 27.799 82.4366 27.6549C81.5724 27.4149 81.5724 27.5109 80.7562 27.991C79.5079 29.3354 79.1238 31.1598 78.7397 32.8883C78.0675 36.009 78.0195 41.0023 78.5956 48.2041C78.7877 50.5087 79.1238 52.9573 79.6519 55.5019C80.4201 59.3909 81.5244 63.2799 82.7727 67.0248C83.2048 68.3211 83.6369 69.5214 84.021 70.5777C84.165 70.9618 84.3091 71.2498 84.4051 71.5379L84.4531 71.73Z" fill="#FFA7A9"/>
<path d="M28.3271 80.7081C28.3751 79.6518 29.2393 78.3555 33.9445 77.2992C37.0653 76.6271 42.0585 76.5791 49.3083 77.1552C60.9272 78.1154 73.0743 83.1087 73.0743 83.1087L72.8822 90.5505L33.9445 99.0487C33.9445 99.0967 28.6632 82.2925 28.3271 80.7081Z" fill="url(#paint3_linear_2818_16)"/>
<path d="M28.3271 80.7081C28.3751 79.6518 29.2393 78.3555 33.9445 77.2992C37.0653 76.6271 42.0585 76.5791 49.3083 77.1552C60.9272 78.1154 73.0743 83.1087 73.0743 83.1087L72.8822 90.5505L33.9445 99.0487C33.9445 99.0967 28.6632 82.2925 28.3271 80.7081Z" fill="url(#paint4_linear_2818_16)"/>
<path d="M73.1703 90.7907L33.8004 99.3848C33.4644 98.3766 33.1763 97.3203 32.8402 96.312C32.168 94.1515 31.4959 91.991 30.8717 89.9744C30.1515 87.6699 29.4313 85.3653 28.7592 83.1087C28.5671 82.4366 28.135 81.4283 28.087 80.7561C28.183 79.2198 29.7674 78.0675 33.8484 77.1552C37.0172 76.4831 42.0585 76.3871 49.3083 77.0112C51.6609 77.2033 54.1095 77.5393 56.6541 78.0675C60.5431 78.8357 64.4801 79.9399 68.225 81.1883C69.5214 81.6204 70.7217 82.0525 71.8259 82.4366C72.21 82.5806 72.5461 82.7246 72.7862 82.8207C73.0743 82.9647 72.9302 82.8687 73.2663 83.0127L73.1703 90.7907ZM34.1365 98.8087L72.6902 90.4066L72.8342 83.3008L72.6421 83.2048C72.3541 83.1087 72.018 82.9647 71.6819 82.8207C70.6256 82.4366 69.4253 82.0045 68.129 81.5723C64.3841 80.324 60.4951 79.2198 56.6061 78.4516C54.0615 77.9234 51.6129 77.5873 49.3083 77.3953C42.1065 76.8192 37.1133 76.8672 33.9925 77.5393C32.264 77.9234 30.4396 78.3555 29.0953 79.5558C28.5671 80.276 28.5191 80.4681 28.7592 81.2363C28.9032 81.7164 29.0953 82.3886 29.2393 82.9167C29.6234 84.261 30.0555 85.6054 30.4876 86.9497C31.4478 89.9745 32.3601 93.0472 33.3203 96.072C33.5604 96.8402 33.8004 97.5123 33.9925 98.1365L34.1365 98.8087Z" fill="#FFA7A9"/>
<path d="M108.651 149.461C108.651 149.461 113.404 114.749 93.3834 91.1748C88.8702 92.4711 73.0263 95.976 72.7862 96.216C94.6317 120.03 76.4831 154.119 76.4831 154.119L94.3916 142.164L108.651 149.461Z" fill="url(#paint5_linear_2818_16)"/>
<path d="M52.8612 128.768C54.3496 129.296 57.2303 128.528 59.0067 125.887C60.5911 123.487 62.4636 117.005 66.4486 109.948C71.2018 101.497 92.9032 88.4861 92.9032 88.4861L100.297 101.305C100.297 101.305 97.5604 104.138 93.0473 106.491C93.4794 112.348 93.7674 118.926 93.3833 124.687C92.6152 136.258 87.958 139.667 84.4531 140.099C82.8687 140.291 77.1553 137.458 69.4734 134.674C64.8642 133.089 54.4456 130.113 52.8612 128.768Z" fill="#121214"/>
<path d="M23.5739 115.229C22.9017 114.028 22.0855 110.812 26.5026 106.395C29.4314 103.466 35.5289 98.9527 43.931 94.4396C57.3263 87.2858 73.5064 82.8687 73.5064 82.8687L79.3638 94.6316L42.6347 131.361C42.6827 131.409 25.0623 116.717 23.5739 115.229Z" fill="url(#paint6_linear_2818_16)"/>
<path d="M42.6827 131.697C40.6662 130.016 41.6744 130.833 39.7539 129.248C37.6414 127.52 35.5289 125.743 33.5124 124.015C30.9197 121.854 28.3271 119.646 25.7824 117.437C25.2543 117.005 23.8139 115.853 23.3818 115.277C22.1335 113.02 22.7097 109.851 26.3586 106.203C29.7194 102.842 36.2011 98.2806 43.835 94.1996C47.7719 92.087 52.189 90.1185 56.8942 88.2461C60.8312 86.6617 64.8162 85.3173 68.5611 84.117C69.8575 83.6849 71.0578 83.3488 72.114 83.0128C72.4981 82.9167 72.8342 82.8207 73.0743 82.7247C73.4104 82.6287 73.2183 82.6767 73.6024 82.5807L79.6519 94.6797L42.6827 131.697ZM42.6827 131.073L79.1238 94.6317L73.4104 83.2048L73.2663 83.2528C72.9783 83.3488 72.6422 83.4449 72.3061 83.5409C71.2498 83.829 70.0495 84.2131 68.7532 84.6452C65.0083 85.8455 61.0713 87.2378 57.1343 88.7742C52.4291 90.6467 48.06 92.6152 44.123 94.7277C36.4891 98.7607 30.0555 103.274 26.6947 106.587C24.8702 108.459 22.8057 111.052 23.3338 113.884C23.3818 114.173 23.5739 114.797 23.7659 115.085C23.958 115.373 24.9182 116.093 25.1103 116.285C25.7824 116.861 26.5986 117.581 27.3188 118.158C29.2873 119.838 31.2078 121.47 33.1763 123.103C33.4164 123.295 33.6084 123.487 33.8485 123.631C35.865 125.311 37.9775 127.088 40.09 128.816C40.8102 129.44 41.4824 130.016 42.1065 130.497L42.6827 131.073Z" fill="#FFA7A9"/>
<path d="M50.0285 129.873C51.5169 130.401 54.3976 129.633 56.174 126.992C57.7584 124.591 59.6309 118.11 63.6159 111.052C68.3691 102.602 77.2033 92.2312 77.2033 92.2312L89.2063 96.5523C89.2063 96.5523 91.3188 114.269 90.5026 125.84C89.7344 137.41 85.0772 140.819 81.5724 141.251C79.988 141.443 74.2745 138.611 66.5926 135.826C62.0315 134.194 51.6129 131.217 50.0285 129.873Z" fill="url(#paint7_linear_2818_16)"/>
<path d="M28.1351 80.6602C31.1118 85.3654 38.8897 86.3256 47.0038 85.9415C56.7022 85.4614 74.6587 83.685 74.6587 83.685L77.3954 96.1681C77.3954 96.1681 63.5199 107.355 53.2933 112.828C43.0668 118.302 38.5056 119.55 36.2491 116.765C35.2408 115.517 32.9363 109.227 31.2078 101.209C30.1516 96.5042 27.847 82.7247 28.1351 80.6602Z" fill="url(#paint8_linear_2818_16)"/>
<path d="M77.1553 95.208C67.937 102.458 58.4786 109.516 47.868 114.557C46.2356 115.325 44.3151 116.141 42.5866 116.717C41.0022 117.197 39.1298 117.63 37.5454 117.005C35.913 116.381 35.3848 115.037 34.7607 113.549C34.5206 112.972 34.2806 112.396 34.0885 111.82C33.3683 109.852 32.7922 107.595 32.216 105.579C34.7127 107.739 37.3053 106.587 39.0818 105.435C41.1463 104.042 43.931 101.546 47.1478 99.0489C50.3166 96.6003 54.3016 94.5358 57.0383 93.4315C60.8792 91.8471 67.7449 88.6783 75.1388 85.2695L77.1553 95.208Z" fill="url(#paint9_linear_2818_16)"/>
<path d="M76.2431 87.7181L68.081 92.3752L77.8755 90.7428L67.6009 99.6731L80.084 93.0474L66.6887 108.411L81.8125 94.8719L78.9317 103.466L83.877 96.7923L78.4996 116.477L86.5176 97.0324C86.6137 96.9844 76.2431 87.7181 76.2431 87.7181Z" fill="#80000D"/>
<path d="M73.8425 84.0209L73.3143 84.069C72.21 84.165 70.9617 84.309 69.6174 84.405C65.7764 84.7411 61.9355 85.0772 58.2866 85.4133C57.9985 85.4613 57.6624 85.4613 57.3743 85.5093C53.2933 85.8454 49.7884 86.0855 47.0518 86.2295C42.6347 86.3735 38.0255 86.4696 33.8004 85.0292C31.8319 84.357 29.5754 83.0607 28.3271 81.2843C27.991 80.5161 28.183 80.8521 28.2311 80.18L28.5191 80.6601C31.1118 84.7891 37.4013 86.2295 47.0037 85.7494C49.6924 85.6053 53.1973 85.3653 57.2783 85.0292C57.5664 85.0292 57.9025 84.9812 58.1905 84.9332C61.7914 84.6451 65.6804 84.309 69.5214 83.9249C70.8657 83.7809 72.114 83.6849 73.2183 83.5888L73.6984 83.5408L73.7464 83.6849L73.8425 84.0209Z" fill="#FFA7A9"/>
<path d="M75.7149 134.626C74.2745 135.97 72.4501 137.122 70.4336 137.266C67.4568 136.114 68.7532 136.594 66.4966 135.778C61.9835 134.145 51.5649 131.169 49.9805 129.824C51.4688 130.353 54.3496 129.584 56.126 126.944C57.7104 124.543 59.5829 118.061 63.5679 111.004C66.3526 106.106 69.7134 101.545 73.1703 97.0802C74.0825 95.8799 75.0427 94.6796 76.003 93.5274C76.3871 93.0952 76.7232 92.5671 77.1553 92.183L88.9182 96.4081V96.4561C86.9497 105.434 84.5971 114.317 81.5244 122.959C80.5641 125.695 79.7479 127.52 78.6436 130.064C78.4996 130.353 77.8754 131.697 77.6354 132.129C77.3473 132.609 77.0592 133.041 76.7712 133.473L75.7149 134.626Z" fill="url(#paint10_linear_2818_16)"/>
<path d="M23.5739 115.229C25.0623 116.717 28.8072 117.389 32.4081 115.229C35.6249 113.308 41.3863 106.683 50.0285 100.537C60.3031 93.1913 76.4831 85.8455 76.4831 85.8455L88.2461 97.6085C88.2461 97.6085 80.9002 119.646 73.5544 132.849C66.2085 146.053 58.8627 147.541 54.4456 146.053C52.4771 145.38 44.7952 139.475 38.1215 132.945C31.4478 126.368 24.7262 117.677 23.5739 115.229Z" fill="url(#paint11_linear_2818_16)"/>
<path d="M75.2348 86.7098C73.7945 87.382 74.6107 86.9979 72.8342 87.8621C69.9535 89.2544 66.9287 90.7908 63.904 92.4232C61.4074 93.7676 59.0548 95.1119 56.8462 96.4082C54.3496 97.8966 52.093 99.3369 50.1726 100.729C45.6594 103.898 41.5784 107.595 37.5454 111.292C34.9047 113.693 33.6564 114.749 32.5521 115.421C30.3436 116.669 26.8387 117.533 24.4861 116.141C23.814 115.805 23.4299 115.373 23.3819 115.325L23.766 115.037C25.3984 116.669 29.1913 116.861 32.3121 114.989C33.3684 114.365 34.6167 113.308 37.2573 110.908C40.042 108.411 42.7787 105.819 45.7074 103.514C47.7239 101.882 48.156 101.594 49.9325 100.297C51.901 98.9048 54.1576 97.4165 56.6542 95.9281C58.8627 94.5838 61.2153 93.2874 63.7119 91.9431C66.7367 90.3107 69.7615 88.7743 72.6422 87.382C74.3706 86.5177 73.6024 86.9018 74.9948 86.2777L75.2348 86.7098Z" fill="#FFA7A9"/>
<path d="M108.939 149.99L94.3916 142.596L76.9633 154.647L76.4832 154.167C84.1651 148.741 77.9235 152.774 94.3436 141.779L108.363 148.933C108.459 148.213 108.411 148.597 108.459 147.781C108.555 146.437 108.651 144.9 108.747 143.172C108.891 138.275 108.699 132.993 107.979 127.568C106.443 116.861 103.466 106.059 97.2243 97.0323C97.6084 96.7442 97.4164 96.8882 97.8485 96.5522L98.0405 96.7922C104.138 106.299 107.067 116.333 108.699 127.424C109.419 132.897 109.659 138.179 109.467 143.124C109.419 144.852 109.323 146.389 109.179 147.781C109.131 148.261 109.083 148.693 109.035 149.029C108.987 149.269 108.987 149.413 108.987 149.461L108.939 149.99Z" fill="url(#paint12_linear_2818_16)"/>
<path d="M82.3886 102.746C77.0593 98.3286 71.6339 90.9348 70.2416 86.2776C68.8492 81.6204 72.018 81.4284 77.2993 85.8455C82.6287 90.2626 88.054 97.6565 89.4464 102.314C90.8867 106.971 87.7179 107.163 82.3886 102.746Z" fill="#121214"/>
<path d="M150.614 107.499C150.614 107.499 115.901 112.252 92.3271 92.2312C93.6234 87.718 97.1283 71.8741 97.3683 71.634C121.182 93.4795 155.271 75.3309 155.271 75.3309L143.316 93.2394L150.614 107.499Z" fill="url(#paint13_linear_2818_16)"/>
<path d="M130.017 51.6129C130.545 53.1012 129.776 55.982 127.136 57.7584C124.735 59.3428 118.254 61.2153 111.196 65.2003C102.746 69.9535 91.1268 90.0705 91.1268 90.0705L102.026 99.0007C102.026 99.0007 105.914 96.216 108.363 91.7989C113.98 92.183 120.654 92.4231 125.983 92.087C137.554 91.3188 140.963 86.6616 141.395 83.1568C141.587 81.5724 138.755 75.8589 135.97 68.177C134.338 63.6159 131.361 53.1973 130.017 51.6129Z" fill="#121214"/>
<path d="M151.142 107.787L143.748 93.2394L155.799 75.811L155.319 75.3309C149.893 83.0128 153.926 76.7713 142.932 93.1914L150.085 107.211C149.365 107.307 149.749 107.259 148.933 107.307C147.589 107.403 146.052 107.499 144.324 107.595C139.427 107.739 134.146 107.547 128.72 106.827C118.013 105.29 107.211 102.314 98.1845 96.0721C97.8964 96.4562 98.0405 96.2641 97.7044 96.6962L97.9445 96.8883C107.451 102.986 117.485 105.915 128.576 107.547C134.049 108.267 139.331 108.507 144.276 108.315C146.004 108.267 147.541 108.171 148.933 108.027C149.413 107.979 149.845 107.931 150.182 107.883C150.422 107.835 150.566 107.835 150.614 107.835L151.142 107.787Z" fill="url(#paint14_linear_2818_16)"/>
<path d="M116.381 22.4697C115.181 21.7975 111.964 20.9813 107.547 25.3984C104.618 28.3272 100.105 34.4247 95.5919 42.8268C88.4381 56.2222 84.021 72.4022 84.021 72.4022L95.784 78.2597L132.513 41.5305C132.513 41.5305 117.821 23.9101 116.381 22.4697Z" fill="url(#paint15_linear_2818_16)"/>
<path d="M132.849 41.5784C131.169 39.5619 131.985 40.5702 130.401 38.6497C128.672 36.5372 126.896 34.4246 125.167 32.4081C123.007 29.8155 120.798 27.2228 118.59 24.6782C118.158 24.1501 117.005 22.7097 116.429 22.2776C114.173 21.0293 110.956 21.6054 107.355 25.2544C103.994 28.6152 99.4329 35.0968 95.3518 42.7307C93.2393 46.6677 91.2708 51.0848 89.3984 55.79C87.814 59.727 86.4696 63.712 85.2693 67.4569C84.8372 68.7532 84.5011 69.9535 84.165 71.0098C84.069 71.3939 83.973 71.73 83.877 71.97C83.7809 72.3061 83.829 72.1141 83.7329 72.4982L95.832 78.5477L132.849 41.5784ZM132.225 41.5304L95.7839 77.9715L84.3571 72.2581L84.4051 72.1141C84.5011 71.826 84.5972 71.4899 84.6932 71.1538C84.9812 70.0976 85.3653 68.8973 85.7974 67.6009C86.9977 63.856 88.3901 59.919 89.9265 55.982C91.799 51.2769 93.7674 46.9078 95.88 42.9708C99.961 35.3849 104.426 28.9513 107.787 25.5904C109.659 23.766 112.252 21.7015 115.085 22.2296C115.373 22.2776 115.997 22.4697 116.285 22.6617C116.573 22.8538 117.293 23.814 117.485 24.006C118.062 24.6782 118.782 25.4944 119.358 26.2146C121.038 28.1831 122.671 30.1036 124.303 32.0721C124.495 32.3121 124.687 32.5042 124.831 32.7442C126.512 34.7607 128.288 36.8733 130.016 38.9858C130.641 39.706 131.217 40.3781 131.697 41.0023L132.225 41.5304Z" fill="#FFA7A9"/>
<path d="M131.025 48.8763C131.553 50.3647 130.785 53.2454 128.144 55.0218C125.743 56.6062 119.262 58.4787 112.204 62.4637C103.754 67.2169 93.3833 76.0511 93.3833 76.0511L97.7044 88.0541C97.7044 88.0541 115.421 90.1666 126.992 89.3504C138.563 88.5822 141.972 83.9251 142.404 80.4202C142.596 78.8358 139.763 73.1224 136.978 65.4404C135.346 60.8793 132.369 50.4607 131.025 48.8763Z" fill="url(#paint16_linear_2818_16)"/>
<path d="M81.8125 27.0308C86.5177 30.0075 87.4779 37.7854 87.0938 45.8995C86.6137 55.5979 84.8372 73.5544 84.8372 73.5544L97.3204 76.2911C97.3204 76.2911 108.507 62.4156 113.981 52.189C119.454 41.9625 120.702 37.4013 117.918 35.1448C116.669 34.1365 110.38 31.832 102.362 30.1035C97.6564 29.0473 83.877 26.6947 81.8125 27.0308Z" fill="url(#paint17_linear_2818_16)"/>
<path d="M96.3601 76.0031C103.61 66.7848 110.668 57.3264 115.709 46.7158C116.477 45.0834 117.293 43.1629 117.869 41.4345C118.35 39.8501 118.782 37.9776 118.158 36.3932C117.533 34.7608 116.189 34.2327 114.701 33.6085C114.125 33.3685 113.548 33.1284 112.972 32.9363C111.004 32.2162 108.747 31.64 106.731 31.0639C108.891 33.5605 107.739 36.1532 106.587 37.9296C105.194 39.9941 102.698 42.7788 100.201 45.9956C97.7524 49.1644 95.6879 53.1494 94.5836 55.8861C92.9992 59.7271 89.8305 66.5928 86.4216 73.9866L96.3601 76.0031Z" fill="url(#paint18_linear_2818_16)"/>
<path d="M88.8702 75.1389L93.5274 66.9769L91.895 76.7713L100.825 66.4968L94.1995 78.9799L109.563 65.5845L96.024 80.7083L104.618 77.8276L97.9445 82.8208L117.629 77.4435L98.1845 85.4615C98.0885 85.4615 88.8702 75.1389 88.8702 75.1389Z" fill="#80000D"/>
<path d="M85.1253 72.6902L85.1733 72.1621C85.2693 71.0578 85.4134 69.8095 85.5094 68.4652C85.8455 64.6242 86.1816 60.7833 86.5176 57.1344C86.5657 56.8463 86.5657 56.5102 86.6137 56.2221C86.9497 52.1411 87.1898 48.6362 87.3338 45.8996C87.4779 41.4824 87.5739 36.8733 86.1335 32.6482C85.4614 30.6797 84.1651 28.4232 82.3886 27.1749C81.6204 26.8388 81.9565 27.0308 81.2843 27.0788L81.7645 27.3669C85.8935 29.9596 87.3338 36.2491 86.8537 45.8515C86.7097 48.5402 86.4696 52.0451 86.1335 56.1261C86.1335 56.4142 86.0855 56.7503 86.0375 57.0383C85.7494 60.6392 85.4134 64.5282 85.0293 68.3692C84.8852 69.7135 84.7892 70.9618 84.6932 72.0661L84.6452 72.5462L84.7892 72.5942L85.1253 72.6902Z" fill="#FFA7A9"/>
<path d="M135.778 74.5627C137.122 73.1223 138.275 71.2978 138.419 69.2813C137.266 66.3046 137.746 67.6009 136.93 65.3444C135.298 60.8312 132.321 50.4126 130.977 48.8282C131.505 50.3166 130.737 53.1973 128.096 54.9738C125.695 56.5582 119.214 58.4306 112.156 62.4156C107.259 65.2003 102.698 68.5612 98.2326 72.018C97.0323 72.9302 95.832 73.8905 94.6797 74.8507C94.2476 75.2348 93.7194 75.5709 93.3354 76.003L97.5604 87.766H97.6084C106.587 85.7975 115.469 83.4449 124.111 80.3721C126.848 79.4119 128.672 78.5957 131.217 77.4914C131.505 77.3474 132.849 76.7232 133.281 76.4831C133.761 76.1951 134.194 75.907 134.626 75.6189L135.778 74.5627Z" fill="url(#paint19_linear_2818_16)"/>
<path d="M116.381 22.4697C117.869 23.9581 118.542 27.703 116.381 31.3039C114.461 34.5207 107.835 40.2822 101.689 48.9243C94.3436 59.1989 86.9977 75.3789 86.9977 75.3789L98.7607 87.1419C98.7607 87.1419 120.798 79.796 134.002 72.4502C147.205 65.1044 148.693 57.7585 147.205 53.3414C146.533 51.373 141.587 44.6993 133.905 37.2094C127.232 30.5838 118.83 23.574 116.381 22.4697Z" fill="url(#paint20_linear_2818_16)"/>
<path d="M87.862 74.0826C88.5341 72.6422 88.15 73.4584 89.0142 71.682C90.4066 68.8012 91.943 65.7765 93.5754 62.7517C94.9197 60.2551 96.2641 57.9025 97.5604 55.694C99.0488 53.1973 100.489 50.9408 101.881 49.0203C105.05 44.5072 108.747 40.4262 112.444 36.3932C114.845 33.7525 115.901 32.5042 116.573 31.3999C117.821 29.1914 118.686 25.6865 117.293 23.3339C116.957 22.6617 116.525 22.2776 116.477 22.2296L116.189 22.6137C117.821 24.2461 118.013 28.0391 116.141 31.1598C115.517 32.2161 114.461 33.4644 112.06 36.1051C109.563 38.8898 106.971 41.6265 104.666 44.5552C103.034 46.5717 102.746 47.0038 101.449 48.7802C100.057 50.7487 98.5686 53.0053 97.0803 55.5019C95.7359 57.7105 94.4396 60.0631 93.0953 62.5597C91.4629 65.5844 89.9265 68.6092 88.5341 71.4899C87.6699 73.2183 88.054 72.4502 87.4298 73.8425L87.862 74.0826Z" fill="#FFA7A9"/>
<path d="M103.898 81.3804C99.4809 76.051 92.0871 70.6257 87.4299 69.2333C82.7727 67.841 82.5807 71.0098 86.9978 76.2911C91.4149 81.6204 98.8087 87.0458 103.466 88.4381C108.123 89.8305 108.315 86.6617 103.898 81.3804Z" fill="#121214"/>
<path d="M69.8575 82.3406C70.0975 79.5079 81.5244 68.8972 84.069 68.4171C86.6137 67.985 107.163 86.3736 106.395 89.7344C105.77 92.6151 93.9595 104.09 90.6467 105.482C87.4299 106.827 69.6174 85.1733 69.8575 82.3406Z" fill="url(#paint21_linear_2818_16)"/>
<defs>
<linearGradient id="paint0_linear_2818_16" x1="-10.3065" y1="181.693" x2="181.692" y2="-10.3063" gradientUnits="userSpaceOnUse">
<stop stop-color="#FF001B"/>
<stop offset="0.16" stop-color="#FF001B"/>
<stop offset="0.327" stop-color="#63000A"/>
<stop offset="0.65" stop-color="#67000B"/>
<stop offset="0.831" stop-color="#FF001B"/>
<stop offset="1" stop-color="#FF001B"/>
</linearGradient>
<linearGradient id="paint1_linear_2818_16" x1="105.721" y1="7.84779" x2="85.349" y2="195.419" gradientUnits="userSpaceOnUse">
<stop stop-color="#580009"/>
<stop offset="0.135" stop-color="#A40011"/>
<stop offset="0.263" stop-color="#D80016"/>
<stop offset="0.562" stop-color="#AA0012"/>
<stop offset="0.991" stop-color="#5B0009"/>
</linearGradient>
<linearGradient id="paint2_linear_2818_16" x1="146.98" y1="105.93" x2="14.3693" y2="54.6277" gradientUnits="userSpaceOnUse">
<stop/>
<stop offset="0.2653" stop-color="#525252"/>
<stop offset="0.5274" stop-color="#9C9C9C"/>
<stop offset="0.7427" stop-color="#D2D2D2"/>
<stop offset="0.9032" stop-color="#F3F3F3"/>
<stop offset="0.991" stop-color="white"/>
</linearGradient>
<linearGradient id="paint3_linear_2818_16" x1="7.78998" y1="105.839" x2="195.36" y2="85.4667" gradientUnits="userSpaceOnUse">
<stop stop-color="#580009"/>
<stop offset="0.135" stop-color="#A40011"/>
<stop offset="0.263" stop-color="#D80016"/>
<stop offset="0.562" stop-color="#AA0012"/>
<stop offset="0.991" stop-color="#5B0009"/>
</linearGradient>
<linearGradient id="paint4_linear_2818_16" x1="104.996" y1="146.813" x2="53.3869" y2="0.777882" gradientUnits="userSpaceOnUse">
<stop/>
<stop offset="0.4425" stop-color="#787878"/>
<stop offset="0.822" stop-color="#D9D9D9"/>
<stop offset="0.991" stop-color="white"/>
</linearGradient>
<linearGradient id="paint5_linear_2818_16" x1="165.335" y1="217.652" x2="106.923" y2="-7.05371" gradientUnits="userSpaceOnUse">
<stop stop-color="#D50016"/>
<stop offset="0.342" stop-color="#FF001B"/>
<stop offset="0.536" stop-color="#C70015"/>
<stop offset="0.729" stop-color="#80000D"/>
</linearGradient>
<linearGradient id="paint6_linear_2818_16" x1="26.9251" y1="157.223" x2="187.939" y2="18.5962" gradientUnits="userSpaceOnUse">
<stop stop-color="#580009"/>
<stop offset="0.135" stop-color="#A40011"/>
<stop offset="0.263" stop-color="#E60018"/>
<stop offset="0.5" stop-color="#BD0014"/>
</linearGradient>
<linearGradient id="paint7_linear_2818_16" x1="83.7987" y1="173.846" x2="135.143" y2="1.99465" gradientUnits="userSpaceOnUse">
<stop stop-color="#93000F"/>
<stop offset="0.111" stop-color="#D50016"/>
<stop offset="0.226" stop-color="#FF3B46"/>
<stop offset="0.361" stop-color="#E10017"/>
<stop offset="0.551" stop-color="#990010"/>
<stop offset="0.782" stop-color="#67000B"/>
</linearGradient>
<linearGradient id="paint8_linear_2818_16" x1="11.0985" y1="99.7012" x2="190.445" y2="69.9195" gradientUnits="userSpaceOnUse">
<stop stop-color="#93000F"/>
<stop offset="0.111" stop-color="#D50016"/>
<stop offset="0.226" stop-color="#FF7780"/>
<stop offset="0.361" stop-color="#FF001B"/>
<stop offset="0.551" stop-color="#AD0012"/>
<stop offset="0.865" stop-color="#70000C"/>
</linearGradient>
<linearGradient id="paint9_linear_2818_16" x1="11.1092" y1="157.374" x2="207.047" y2="96.6461" gradientUnits="userSpaceOnUse">
<stop offset="0.139"/>
<stop offset="0.389" stop-color="#464646"/>
<stop offset="0.835"/>
</linearGradient>
<linearGradient id="paint10_linear_2818_16" x1="62.5112" y1="178.881" x2="126.128" y2="-3.10718" gradientUnits="userSpaceOnUse">
<stop offset="0.126"/>
<stop offset="0.498" stop-color="#464646"/>
<stop offset="0.844"/>
</linearGradient>
<linearGradient id="paint11_linear_2818_16" x1="47.277" y1="153.419" x2="182.182" y2="26.8554" gradientUnits="userSpaceOnUse">
<stop stop-color="#93000F"/>
<stop offset="0.111" stop-color="#D50016"/>
<stop offset="0.226" stop-color="#FF7780"/>
<stop offset="0.361" stop-color="#FF001B"/>
<stop offset="0.573" stop-color="#C70015"/>
<stop offset="0.857" stop-color="#6C000B"/>
</linearGradient>
<linearGradient id="paint12_linear_2818_16" x1="183.935" y1="83.6767" x2="-4.47265" y2="182.104" gradientUnits="userSpaceOnUse">
<stop stop-color="#80000D"/>
<stop offset="1" stop-color="#C70015"/>
</linearGradient>
<linearGradient id="paint13_linear_2818_16" x1="217.609" y1="165.404" x2="-7.0952" y2="106.993" gradientUnits="userSpaceOnUse">
<stop stop-color="#D50016"/>
<stop offset="0.342" stop-color="#FF001B"/>
<stop offset="0.536" stop-color="#C70015"/>
<stop offset="0.729" stop-color="#80000D"/>
</linearGradient>
<linearGradient id="paint14_linear_2818_16" x1="83.6307" y1="184.012" x2="182.059" y2="-4.39756" gradientUnits="userSpaceOnUse">
<stop stop-color="#80000D"/>
<stop offset="1" stop-color="#C70015"/>
</linearGradient>
<linearGradient id="paint15_linear_2818_16" x1="157.168" y1="26.8086" x2="18.5424" y2="187.822" gradientUnits="userSpaceOnUse">
<stop stop-color="#580009"/>
<stop offset="0.135" stop-color="#A40011"/>
<stop offset="0.263" stop-color="#E60018"/>
<stop offset="0.5" stop-color="#BD0014"/>
</linearGradient>
<linearGradient id="paint16_linear_2818_16" x1="173.793" y1="83.8604" x2="1.94417" y2="135.204" gradientUnits="userSpaceOnUse">
<stop stop-color="#93000F"/>
<stop offset="0.111" stop-color="#D50016"/>
<stop offset="0.226" stop-color="#FF3B46"/>
<stop offset="0.361" stop-color="#E10017"/>
<stop offset="0.551" stop-color="#990010"/>
<stop offset="0.782" stop-color="#67000B"/>
</linearGradient>
<linearGradient id="paint17_linear_2818_16" x1="99.6319" y1="10.9927" x2="69.8592" y2="190.314" gradientUnits="userSpaceOnUse">
<stop stop-color="#93000F"/>
<stop offset="0.111" stop-color="#D50016"/>
<stop offset="0.226" stop-color="#FF7780"/>
<stop offset="0.361" stop-color="#FF001B"/>
<stop offset="0.551" stop-color="#AD0012"/>
<stop offset="0.865" stop-color="#70000C"/>
</linearGradient>
<linearGradient id="paint18_linear_2818_16" x1="157.29" y1="11.1706" x2="96.5609" y2="207.111" gradientUnits="userSpaceOnUse">
<stop offset="0.139"/>
<stop offset="0.389" stop-color="#464646"/>
<stop offset="0.835"/>
</linearGradient>
<linearGradient id="paint19_linear_2818_16" x1="178.816" y1="62.5807" x2="-3.17233" y2="126.198" gradientUnits="userSpaceOnUse">
<stop offset="0.126"/>
<stop offset="0.498" stop-color="#464646"/>
<stop offset="0.844"/>
</linearGradient>
<linearGradient id="paint20_linear_2818_16" x1="152.874" y1="47.645" x2="26.7803" y2="182.049" gradientUnits="userSpaceOnUse">
<stop stop-color="#93000F"/>
<stop offset="0.111" stop-color="#D50016"/>
<stop offset="0.226" stop-color="#FF7780"/>
<stop offset="0.361" stop-color="#FF001B"/>
<stop offset="0.573" stop-color="#C70015"/>
<stop offset="0.857" stop-color="#6C000B"/>
</linearGradient>
<linearGradient id="paint21_linear_2818_16" x1="75.8745" y1="74.9838" x2="99.2259" y2="98.1152" gradientUnits="userSpaceOnUse">
<stop offset="0.011" stop-color="#80000D"/>
<stop offset="0.16" stop-color="#B80013"/>
<stop offset="0.303" stop-color="#E10018"/>
<stop offset="0.5" stop-color="#FF5D61"/>
<stop offset="0.694" stop-color="#E50018"/>
<stop offset="0.853" stop-color="#B60013"/>
<stop offset="1" stop-color="#80000D"/>
</linearGradient>
</defs>
</svg>
