<svg width="24" height="24" viewBox="0 0 24 24" fill="none" xmlns="http://www.w3.org/2000/svg">
<g clip-path="url(#clip0_23_2540)">
<path d="M6.016 4.50199C5.62481 4.50159 5.23738 4.57835 4.8759 4.72787C4.51441 4.87739 4.18596 5.09673 3.90935 5.37334C3.63274 5.64995 3.4134 5.9784 3.26388 6.33989C3.11436 6.70138 3.0376 7.0888 3.038 7.47999C3.038 9.71299 6.016 13.01 6.016 13.01C6.016 13.01 8.994 9.71299 8.994 7.47999C8.99439 7.0888 8.91763 6.70138 8.76811 6.33989C8.61859 5.9784 8.39925 5.64995 8.12264 5.37334C7.84603 5.09673 7.51758 4.87739 7.15609 4.72787C6.79461 4.57835 6.40718 4.50159 6.016 4.50199ZM6.016 8.54299C5.80575 8.54299 5.60023 8.48064 5.42542 8.36384C5.25062 8.24704 5.11437 8.08102 5.03391 7.88678C4.95346 7.69254 4.93241 7.47881 4.97342 7.27261C5.01444 7.0664 5.11568 6.877 5.26434 6.72833C5.413 6.57967 5.60241 6.47843 5.80861 6.43741C6.01482 6.3964 6.22855 6.41745 6.42279 6.4979C6.61703 6.57836 6.78304 6.71461 6.89985 6.88942C7.01665 7.06423 7.079 7.26975 7.079 7.47999C7.07873 7.76183 6.96665 8.03206 6.76736 8.23135C6.56806 8.43064 6.29784 8.54272 6.016 8.54299Z" fill="#121214"/>
<path d="M21.024 11.296V6.99599C21.017 6.54444 20.9483 6.09597 20.82 5.66299C20.4919 4.51831 19.7657 3.52847 18.7723 2.87185C17.7789 2.21523 16.5837 1.93501 15.402 2.0817C14.2203 2.22839 13.1298 2.79234 12.3271 3.67191C11.5244 4.55148 11.0623 5.68882 11.024 6.87899V7.12699L11.014 7.99699V17.949H11.01V17.99C11.01 18.5204 10.7993 19.0291 10.4242 19.4042C10.0491 19.7793 9.54043 19.99 9.01 19.99C8.47956 19.99 7.97085 19.7793 7.59578 19.4042C7.22071 19.0291 7.01 18.5204 7.01 17.99C7.01 17.978 7.013 17.966 7.014 17.953H7.01V16.01H5.01V18.01H5.012C5.01266 19.0703 5.43451 20.087 6.18475 20.8363C6.93499 21.5856 7.95216 22.0062 9.0125 22.0055C10.0728 22.0048 11.0895 21.583 11.8388 20.8327C12.5881 20.0825 13.0087 19.0653 13.008 18.005H13.01V17.023H13.015V8.99699L13.025 7.12699V6.87999C13.0535 6.09275 13.3904 5.34828 13.963 4.80726C14.5356 4.26625 15.2979 3.97207 16.0855 3.98821C16.8731 4.00436 17.6228 4.32954 18.1727 4.89356C18.7227 5.45759 19.0288 6.21524 19.025 7.00299V11.278C18.6421 11.4947 18.3413 11.8316 18.1694 12.2366C17.9974 12.6417 17.9639 13.0921 18.074 13.5181C18.1841 13.9441 18.4317 14.3218 18.7784 14.5928C19.1251 14.8637 19.5515 15.0127 19.9914 15.0167C20.4314 15.0207 20.8604 14.8794 21.2119 14.6147C21.5634 14.35 21.8177 13.9768 21.9355 13.5528C22.0533 13.1289 22.0279 12.6779 21.8632 12.2699C21.6986 11.8619 21.403 11.5195 21.024 11.296Z" fill="#121214"/>
</g>
<defs>
<clipPath id="clip0_23_2540">
<rect width="24" height="24" fill="white"/>
</clipPath>
</defs>
</svg>
