<svg width="22" height="16" viewBox="0 0 22 16" fill="none" xmlns="http://www.w3.org/2000/svg">
<path fill-rule="evenodd" clip-rule="evenodd" d="M21.0605 0.93918C21.3417 1.22047 21.4997 1.60193 21.4997 1.99968C21.4997 2.39743 21.3417 2.77889 21.0605 3.06018L9.06049 15.0602C8.7792 15.3414 8.39774 15.4994 7.99999 15.4994C7.60225 15.4994 7.22078 15.3414 6.93949 15.0602L0.939493 9.06018C0.666256 8.77728 0.515064 8.39837 0.518482 8.00508C0.521899 7.61178 0.679653 7.23556 0.957765 6.95745C1.23588 6.67934 1.6121 6.52159 2.00539 6.51817C2.39869 6.51475 2.77759 6.66594 3.06049 6.93918L7.99999 11.8787L18.9395 0.93918C19.2208 0.657973 19.6022 0.5 20 0.5C20.3977 0.5 20.7792 0.657973 21.0605 0.93918Z" fill="white"/>
</svg>
