<svg width="31" height="31" viewBox="0 0 31 31" fill="none" xmlns="http://www.w3.org/2000/svg">
<path d="M21.9479 18.8289C21.5796 18.6397 19.7452 17.7411 19.404 17.6195C19.0628 17.4911 18.8128 17.4303 18.5662 17.8087C18.3162 18.1836 17.6068 19.0181 17.3838 19.2715C17.1676 19.5214 16.948 19.5519 16.5798 19.366C14.3906 18.2715 12.9549 17.4134 11.5123 14.9371C11.1306 14.2783 11.8941 14.3256 12.6069 12.9034C12.7285 12.6534 12.6677 12.4405 12.5731 12.2514C12.4785 12.0622 11.7353 10.2311 11.4245 9.48453C11.1238 8.7582 10.813 8.85955 10.5867 8.84603C10.3705 8.83252 10.1239 8.83252 9.87386 8.83252C9.62387 8.83252 9.22185 8.92711 8.88064 9.29535C8.53944 9.67034 7.57662 10.5723 7.57662 12.4034C7.57662 14.2344 8.91105 16.008 9.09348 16.258C9.28266 16.508 11.7184 20.2647 15.4582 21.8829C17.823 22.9031 18.7486 22.991 19.931 22.8153C20.6506 22.7072 22.1337 21.9167 22.4411 21.0417C22.7485 20.1701 22.7485 19.4235 22.6573 19.2681C22.5661 19.1025 22.3161 19.0079 21.9479 18.8289Z" fill="white"/>
<path d="M29.0998 9.99465C28.3363 8.18051 27.2417 6.55217 25.8465 5.15356C24.4512 3.75832 22.8229 2.66037 21.0054 1.90026C19.1473 1.11987 17.1744 0.724609 15.1406 0.724609H15.0731C13.0258 0.734744 11.0428 1.14014 9.17794 1.93742C7.37731 2.70767 5.76249 3.80224 4.38076 5.19747C2.99904 6.59271 1.91461 8.21429 1.16462 10.0217C0.387615 11.8933 -0.00426696 13.8831 0.00586793 15.9303C0.0160028 18.2749 0.5768 20.6025 1.62745 22.6835V27.8185C1.62745 28.6766 2.32338 29.3726 3.18147 29.3726H8.31986C10.4009 30.4232 12.7285 30.984 15.0731 30.9941H15.144C17.1676 30.9941 19.1304 30.6023 20.9783 29.8354C22.7857 29.082 24.4107 28.001 25.8025 26.6192C27.1978 25.2375 28.2957 23.6227 29.0626 21.8221C29.8599 19.9572 30.2653 17.9742 30.2754 15.9269C30.2855 13.8696 29.8869 11.873 29.0998 9.99465ZM23.9951 24.7916C21.627 27.1361 18.4851 28.4266 15.1406 28.4266H15.0832C13.0461 28.4165 11.0225 27.9098 9.23537 26.9571L8.9516 26.8051H4.19496V22.0484L4.04293 21.7646C3.09025 19.9775 2.58351 17.9539 2.57337 15.9168C2.55986 12.5486 3.84699 9.38656 6.20842 7.00486C8.56647 4.62316 11.7184 3.30563 15.0866 3.29211H15.144C16.8332 3.29211 18.4716 3.61981 20.0155 4.26844C21.5222 4.90018 22.8736 5.80894 24.0357 6.97108C25.1944 8.12983 26.1066 9.48453 26.7383 10.9913C27.3937 12.552 27.7214 14.2074 27.7147 15.9168C27.6944 19.2816 26.3735 22.4335 23.9951 24.7916Z" fill="white"/>
</svg>
