<svg width="41" height="41" viewBox="0 0 41 41" fill="none" xmlns="http://www.w3.org/2000/svg">
<path d="M20.5289 26.3138C23.8797 26.3138 26.5961 23.6815 26.5961 20.4345C26.5961 17.1875 23.8797 14.5552 20.5289 14.5552C17.1781 14.5552 14.4618 17.1875 14.4618 20.4345C14.4618 23.6815 17.1781 26.3138 20.5289 26.3138Z" fill="#121214"/>
<path d="M29.9197 20.7628C29.9197 25.7881 25.7153 29.8612 20.5289 29.8612C15.3426 29.8612 11.1382 25.7881 11.1382 20.7628C11.1382 19.8623 11.2741 18.9923 11.5257 18.1707H8.75072V30.9329C8.75072 31.5939 9.29095 32.1337 9.95157 32.1337H30.9901C31.6512 32.1337 32.1918 31.5939 32.1918 30.9329V18.1707H29.5322C29.7834 18.9923 29.9197 19.8623 29.9197 20.7628Z" fill="#121214"/>
<path d="M27.4027 14.7267H30.8173C31.5656 14.7267 32.1771 14.1151 32.1771 13.3668V10.1112C32.1771 9.36247 31.5656 8.75093 30.8173 8.75093H27.4027C26.654 8.75093 26.0425 9.36247 26.0425 10.1112V13.3668C26.042 14.1147 26.654 14.7267 27.4027 14.7267Z" fill="#121214"/>
<path d="M20.5 0C9.17813 0 0 9.17813 0 20.5C0 31.8219 9.17813 41 20.5 41C31.8219 41 41 31.8219 41 20.5C41 9.17813 31.8219 0 20.5 0ZM31.7283 35.6065H9.27208C7.1384 35.6065 5.39396 34.0273 5.39396 31.7292V9.27166C5.39396 6.97273 7.1384 5.39396 9.27208 5.39396H31.7283C33.8616 5.39396 35.6065 6.97273 35.6065 9.27166V31.7292C35.6065 34.0273 33.8612 35.6065 31.7283 35.6065Z" fill="#121214"/>
</svg>
